<svg width="182" height="43" viewBox="0 0 182 43" fill="none" xmlns="http://www.w3.org/2000/svg">
<path d="M8.56 13.8C8.784 13.944 8.896 14.112 8.896 14.304C8.896 14.4 8.864 14.504 8.8 14.616C8.672 14.84 8.512 14.952 8.32 14.952C8.208 14.952 8.096 14.92 7.984 14.856L0.952 10.896C0.68 10.736 0.544 10.488 0.544 10.152C0.544 9.864 0.68 9.64 0.952 9.48L7.984 5.568C8.096 5.504 8.208 5.472 8.32 5.472C8.528 5.472 8.688 5.576 8.8 5.784C8.864 5.896 8.896 6.008 8.896 6.12C8.896 6.312 8.784 6.472 8.56 6.6L2.104 10.176L8.56 13.8ZM144.479 21.288C144.271 21.288 144.111 21.24 143.999 21.144C143.903 21.048 143.855 20.912 143.855 20.736C143.855 20.624 143.863 20.544 143.879 20.496L148.799 1.344C148.863 1.024 149.063 0.863999 149.399 0.863999C149.607 0.863999 149.759 0.911999 149.855 1.008C149.967 1.104 150.023 1.24 150.023 1.416C150.023 1.512 150.015 1.592 149.999 1.656L145.079 20.808C145.015 21.128 144.815 21.288 144.479 21.288ZM161.37 9.48C161.642 9.64 161.778 9.864 161.778 10.152C161.778 10.488 161.642 10.736 161.37 10.896L154.338 14.856C154.226 14.92 154.114 14.952 154.002 14.952C153.81 14.952 153.65 14.84 153.522 14.616C153.458 14.504 153.426 14.4 153.426 14.304C153.426 14.112 153.538 13.944 153.762 13.8L160.218 10.176L153.762 6.6C153.538 6.472 153.426 6.312 153.426 6.12C153.426 6.008 153.458 5.896 153.522 5.784C153.634 5.576 153.794 5.472 154.002 5.472C154.114 5.472 154.226 5.504 154.338 5.568L161.37 9.48Z" fill="white"/>
<path d="M27.4377 2.544C27.8057 2.544 27.9897 2.752 27.9897 3.168V17.376C27.9897 17.792 27.7817 18 27.3657 18C26.9497 18 26.7417 17.792 26.7417 17.376V5.136L21.5577 13.008C21.3977 13.28 21.1497 13.416 20.8137 13.416C20.5257 13.416 20.2937 13.28 20.1177 13.008L14.9097 5.064V17.376C14.9097 17.792 14.7017 18 14.2857 18C13.8697 18 13.6617 17.792 13.6617 17.376V3.168C13.6617 2.752 13.8697 2.544 14.2857 2.544C14.6057 2.544 14.8457 2.68 15.0057 2.952L20.8617 11.904L26.6937 2.952C26.8537 2.68 27.1017 2.544 27.4377 2.544ZM42.7066 17.016C42.8186 17.144 42.8746 17.28 42.8746 17.424C42.8746 17.6 42.7866 17.76 42.6106 17.904C42.4826 18.016 42.3466 18.072 42.2026 18.072C42.0426 18.072 41.8906 17.984 41.7466 17.808L35.5066 10.056L33.7066 11.904V17.376C33.7066 17.792 33.4986 18 33.0826 18C32.6666 18 32.4586 17.792 32.4586 17.376V3.168C32.4586 2.752 32.6666 2.544 33.0826 2.544C33.4986 2.544 33.7066 2.752 33.7066 3.168V10.104L40.8586 2.76C41.0026 2.616 41.1466 2.544 41.2906 2.544C41.4346 2.544 41.5786 2.616 41.7226 2.76C41.8666 2.904 41.9386 3.056 41.9386 3.216C41.9386 3.344 41.8746 3.488 41.7466 3.648L36.3706 9.168L42.7066 17.016Z" fill="#8257E5"/>
<path d="M57.9419 6.672C59.4459 6.672 60.5419 7.016 61.2299 7.704C61.9179 8.392 62.2619 9.488 62.2619 10.992V13.68C62.2619 15.184 61.9179 16.28 61.2299 16.968C60.5419 17.656 59.4459 18 57.9419 18H52.9019V22.176C52.9019 22.592 52.6939 22.8 52.2779 22.8C51.8619 22.8 51.6539 22.592 51.6539 22.176V7.296C51.6539 6.88 51.8619 6.672 52.2779 6.672C52.6939 6.672 52.9019 6.88 52.9019 7.296V8.352C53.6539 7.232 55.0299 6.672 57.0299 6.672H57.9419ZM61.0139 10.992C61.0139 9.856 60.7899 9.064 60.3419 8.616C59.8939 8.152 59.0939 7.92 57.9419 7.92H57.0299C55.7659 7.92 54.7819 8.12 54.0779 8.52C53.3739 8.92 52.9899 9.52 52.9259 10.32C52.9259 10.4 52.9179 10.456 52.9019 10.488V16.752H57.9419C59.0939 16.752 59.8939 16.528 60.3419 16.08C60.7899 15.616 61.0139 14.816 61.0139 13.68V10.992ZM72.2995 6.672C72.7155 6.672 72.9235 6.88 72.9235 7.296C72.9235 7.712 72.7155 7.92 72.2995 7.92C70.8595 7.92 69.7475 8.248 68.9635 8.904C68.1795 9.56 67.7555 10.496 67.6915 11.712C67.6915 11.792 67.6835 11.848 67.6675 11.88V17.376C67.6675 17.792 67.4595 18 67.0435 18C66.6275 18 66.4195 17.792 66.4195 17.376V7.296C66.4195 6.88 66.6275 6.672 67.0435 6.672C67.4595 6.672 67.6675 6.88 67.6675 7.296V9.216C68.0835 8.4 68.6835 7.776 69.4675 7.344C70.2675 6.896 71.2115 6.672 72.2995 6.672ZM78.9822 18C77.4782 18 76.3822 17.656 75.6942 16.968C75.0062 16.28 74.6622 15.192 74.6622 13.704V10.992C74.6622 9.472 75.0062 8.368 75.6942 7.68C76.3822 6.992 77.4782 6.656 78.9822 6.672H80.9502C82.4542 6.672 83.5502 7.016 84.2382 7.704C84.9262 8.392 85.2702 9.488 85.2702 10.992V13.68C85.2702 15.184 84.9262 16.28 84.2382 16.968C83.5502 17.656 82.4542 18 80.9502 18H78.9822ZM80.9502 16.752C82.0862 16.752 82.8782 16.528 83.3262 16.08C83.7902 15.616 84.0222 14.816 84.0222 13.68V10.992C84.0222 9.856 83.7902 9.064 83.3262 8.616C82.8782 8.152 82.0862 7.92 80.9502 7.92H78.9822C77.8462 7.904 77.0462 8.128 76.5822 8.592C76.1342 9.04 75.9102 9.84 75.9102 10.992V13.704C75.9102 14.84 76.1342 15.632 76.5822 16.08C77.0462 16.528 77.8462 16.752 78.9822 16.752H80.9502ZM86.7477 22.176C86.7477 21.984 86.8117 21.832 86.9397 21.72C87.0517 21.608 87.2037 21.552 87.3957 21.552C88.1637 21.552 88.6917 21.408 88.9797 21.12C89.2677 20.832 89.4117 20.304 89.4117 19.536V7.296C89.4117 6.88 89.6197 6.672 90.0357 6.672C90.4517 6.672 90.6597 6.88 90.6597 7.296V19.536C90.6597 20.656 90.3957 21.48 89.8677 22.008C89.3397 22.536 88.5157 22.8 87.3957 22.8C87.2037 22.8 87.0517 22.744 86.9397 22.632C86.8117 22.52 86.7477 22.368 86.7477 22.176ZM89.7717 4.488C89.4997 4.488 89.2917 4.416 89.1477 4.272C89.0037 4.128 88.9317 3.92 88.9317 3.648V3.12C88.9317 2.848 89.0037 2.64 89.1477 2.496C89.2917 2.352 89.4997 2.28 89.7717 2.28H90.3237C90.8517 2.28 91.1157 2.56 91.1157 3.12V3.648C91.1157 4.208 90.8517 4.488 90.3237 4.488H89.7717ZM96.0664 12.816V13.704C96.0664 14.84 96.2904 15.632 96.7384 16.08C97.2024 16.528 98.0024 16.752 99.1384 16.752H101.106C102.13 16.752 102.866 16.624 103.314 16.368C103.778 16.096 104.05 15.64 104.13 15C104.21 14.6 104.426 14.4 104.778 14.4C105.002 14.4 105.162 14.456 105.258 14.568C105.37 14.68 105.41 14.84 105.378 15.048C105.266 16.056 104.858 16.8 104.154 17.28C103.466 17.76 102.45 18 101.106 18H99.1384C97.6504 18 96.5544 17.656 95.8504 16.968C95.1624 16.28 94.8184 15.192 94.8184 13.704V10.992C94.8184 9.488 95.1624 8.392 95.8504 7.704C96.5544 7 97.6504 6.656 99.1384 6.672H101.106C102.594 6.672 103.682 7.024 104.37 7.728C105.074 8.416 105.426 9.504 105.426 10.992V12.192C105.426 12.608 105.218 12.816 104.802 12.816H96.0664ZM96.0664 11.568H104.178V10.992C104.178 9.84 103.954 9.04 103.506 8.592C103.058 8.144 102.258 7.92 101.106 7.92H99.1384C97.9864 7.904 97.1864 8.12 96.7384 8.568C96.2904 9.016 96.0664 9.824 96.0664 10.992V11.568ZM113.576 18C112.088 18 110.992 17.656 110.288 16.968C109.6 16.264 109.256 15.168 109.256 13.68V10.968C109.256 9.464 109.6 8.368 110.288 7.68C110.992 6.992 112.088 6.656 113.576 6.672H115.544C116.728 6.672 117.624 6.872 118.232 7.272C118.856 7.672 119.224 8.296 119.336 9.144C119.368 9.336 119.328 9.496 119.216 9.624C119.104 9.736 118.944 9.792 118.736 9.792C118.384 9.792 118.168 9.6 118.088 9.216C117.992 8.736 117.752 8.4 117.368 8.208C116.984 8.016 116.376 7.92 115.544 7.92H113.576C112.424 7.904 111.624 8.12 111.176 8.568C110.728 9.016 110.504 9.816 110.504 10.968V13.68C110.504 14.832 110.728 15.632 111.176 16.08C111.64 16.528 112.44 16.752 113.576 16.752H115.544C116.376 16.752 116.984 16.656 117.368 16.464C117.752 16.272 117.992 15.936 118.088 15.456C118.168 15.072 118.384 14.88 118.736 14.88C118.944 14.88 119.104 14.944 119.216 15.072C119.328 15.184 119.368 15.336 119.336 15.528C119.224 16.376 118.856 17 118.232 17.4C117.624 17.8 116.728 18 115.544 18H113.576ZM127.63 16.752C128.062 16.752 128.278 16.96 128.278 17.376C128.278 17.792 128.062 18 127.63 18C126.158 18 125.078 17.664 124.39 16.992C123.718 16.32 123.382 15.248 123.382 13.776V7.92H121.942C121.526 7.92 121.318 7.712 121.318 7.296C121.318 6.88 121.526 6.672 121.942 6.672H123.382V4.08C123.382 3.664 123.59 3.456 124.006 3.456C124.422 3.456 124.63 3.664 124.63 4.08V6.672H127.654C128.07 6.672 128.278 6.88 128.278 7.296C128.278 7.712 128.07 7.92 127.654 7.92H124.63V13.776C124.63 14.896 124.846 15.672 125.278 16.104C125.726 16.536 126.51 16.752 127.63 16.752ZM134.048 17.976C133.072 17.976 132.32 17.768 131.792 17.352C131.28 16.936 130.976 16.296 130.88 15.432C130.864 15.224 130.904 15.064 131 14.952C131.112 14.824 131.272 14.76 131.48 14.76C131.672 14.76 131.816 14.816 131.912 14.928C132.024 15.024 132.096 15.176 132.128 15.384C132.192 15.88 132.368 16.232 132.656 16.44C132.96 16.632 133.424 16.728 134.048 16.728H137.984C138.736 16.728 139.248 16.592 139.52 16.32C139.808 16.032 139.952 15.512 139.952 14.76C139.952 14.008 139.808 13.496 139.52 13.224C139.248 12.936 138.736 12.792 137.984 12.792H134.12C133.064 12.792 132.28 12.544 131.768 12.048C131.272 11.552 131.024 10.784 131.024 9.744C131.024 8.688 131.272 7.912 131.768 7.416C132.28 6.904 133.064 6.648 134.12 6.648H137.864C139.688 6.648 140.696 7.448 140.888 9.048C140.904 9.256 140.856 9.416 140.744 9.528C140.648 9.64 140.496 9.696 140.288 9.696C140.096 9.696 139.944 9.648 139.832 9.552C139.736 9.456 139.664 9.304 139.616 9.096C139.552 8.648 139.384 8.336 139.112 8.16C138.856 7.984 138.44 7.896 137.864 7.896H134.12C133.416 7.896 132.928 8.032 132.656 8.304C132.4 8.56 132.272 9.04 132.272 9.744C132.272 10.432 132.4 10.904 132.656 11.16C132.928 11.416 133.416 11.544 134.12 11.544H137.984C139.088 11.544 139.896 11.808 140.408 12.336C140.936 12.864 141.2 13.672 141.2 14.76C141.2 15.864 140.936 16.68 140.408 17.208C139.896 17.72 139.088 17.976 137.984 17.976H134.048Z" fill="#45B549"/>
</svg>
